<?xml version="1.0" standalone="no"?>
<!DOCTYPE svg PUBLIC "-//W3C//DTD SVG 20010904//EN"
 "http://www.w3.org/TR/2001/REC-SVG-20010904/DTD/svg10.dtd">
<svg version="1.0" xmlns="http://www.w3.org/2000/svg"
 width="512.000000pt" height="512.000000pt" viewBox="0 0 512.000000 512.000000"
 preserveAspectRatio="xMidYMid meet">
<metadata>
Created by potrace 1.11, written by Peter Selinger 2001-2013
</metadata>
<g transform="translate(0.000000,512.000000) scale(0.100000,-0.100000)"
fill="#000000" stroke="none">
<path d="M940 4010 l0 -1110 -300 0 -300 0 0 -170 0 -170 -85 0 -85 0 0 300 0
300 145 0 c142 0 147 1 170 25 40 39 28 111 -22 134 -15 7 -104 11 -243 11
l-220 0 0 -470 0 -470 170 0 170 0 0 -170 0 -170 131 0 131 0 -5 -402 c-5
-411 -10 -468 -52 -627 -36 -140 -81 -251 -101 -251 -12 0 -14 -45 -14 -255
l0 -254 83 -3 82 -3 3 -127 3 -128 339 0 340 0 0 130 0 130 1280 0 1280 0 0
-130 0 -130 340 0 339 0 3 128 3 127 83 3 82 3 0 254 c0 210 -2 255 -14 255
-20 0 -65 111 -101 251 -42 159 -47 216 -52 627 l-5 402 223 0 c243 0 276 7
326 61 52 57 53 65 53 536 0 404 -2 441 -19 478 -22 48 -54 79 -103 100 -30
12 -82 15 -266 15 -220 0 -231 -1 -273 -23 -24 -13 -57 -43 -74 -66 -27 -39
-30 -50 -33 -147 l-4 -104 -124 0 -124 0 0 1110 0 1110 -1580 0 -1580 0 0
-1110z m2985 -85 l0 -1020 -1407 -3 -1408 -2 0 1025 0 1025 1408 -2 1407 -3 0
-1020z m1023 -942 l3 -83 -216 0 -215 0 0 78 c0 43 3 82 7 86 4 3 99 5 212 4
l206 -3 3 -82z m-598 -383 l0 -130 -510 0 -510 0 0 49 c0 68 -14 99 -51 115
-69 29 -112 -6 -119 -98 l-5 -61 -82 -3 -83 -3 0 51 c0 64 -21 105 -60 119
-64 22 -108 -18 -112 -104 l-3 -60 -81 -3 -82 -3 -4 61 c-5 73 -36 113 -88
113 -52 0 -83 -40 -88 -113 l-4 -61 -82 3 -81 3 -5 61 c-7 88 -46 125 -110
103 -39 -14 -60 -55 -60 -119 l0 -51 -82 3 -83 3 -5 61 c-7 92 -50 127 -119
98 -37 -16 -51 -47 -51 -115 l0 -49 -595 0 -595 0 0 -125 0 -125 -45 0 -45 0
0 255 0 255 1920 0 1920 0 0 -130z m600 45 l0 -85 -215 0 -215 0 0 85 0 85
215 0 215 0 0 -85z m-2 -337 l-3 -83 -212 -3 -213 -2 0 85 0 85 215 0 216 0
-3 -82z m-3158 -62 c0 -65 26 -102 77 -112 27 -5 37 -1 63 24 26 27 30 37 30
86 l0 56 85 0 85 0 0 -45 c0 -56 20 -97 55 -113 37 -17 50 -15 84 14 28 23 31
31 31 85 l0 59 85 0 85 0 0 -40 c0 -93 55 -147 121 -119 37 15 59 60 59 119
l0 40 85 0 85 0 0 -59 c0 -54 3 -62 31 -85 35 -30 49 -32 88 -12 34 18 51 54
51 111 l0 45 85 0 85 0 0 -56 c0 -49 4 -59 30 -86 26 -25 36 -29 63 -24 51 10
77 47 77 112 l0 54 509 0 509 0 5 -537 c5 -634 7 -646 114 -975 5 -17 -90 -18
-1907 -18 -1817 0 -1912 1 -1907 18 107 329 109 341 114 975 l5 537 509 0 509
0 0 -54z m2730 -1731 l0 -85 -1960 0 -1960 0 0 85 0 85 1960 0 1960 0 0 -85z
m-3410 -300 l0 -45 -170 0 -170 0 0 45 0 45 170 0 170 0 0 -45z m3240 0 l0
-45 -170 0 -170 0 0 45 0 45 170 0 170 0 0 -45z"/>
<path d="M1430 3923 c-62 -23 -81 -100 -34 -144 l26 -24 800 0 800 0 24 28
c31 36 31 78 0 114 l-24 28 -789 2 c-433 1 -795 -1 -803 -4z"/>
<path d="M1396 3559 c-44 -35 -33 -108 21 -137 32 -17 549 -16 583 1 54 27 63
94 20 137 -19 19 -35 20 -309 20 -277 0 -289 -1 -315 -21z"/>
<path d="M2337 3560 c-50 -40 -39 -114 22 -139 56 -24 111 16 111 80 0 68 -78
102 -133 59z"/>
<path d="M2755 3555 c-32 -31 -32 -75 -1 -112 l24 -28 286 -3 287 -3 29 30
c38 38 40 82 5 116 l-24 25 -291 0 -291 0 -24 -25z"/>
<path d="M1395 3215 c-46 -45 -26 -127 33 -140 40 -8 78 9 97 44 42 83 -65
162 -130 96z"/>
<path d="M1834 3228 c-24 -11 -44 -48 -44 -79 0 -11 13 -34 29 -50 l29 -29
497 0 497 0 29 29 c37 38 39 82 4 116 l-24 25 -498 -1 c-321 0 -506 -4 -519
-11z"/>
<path d="M1305 1935 c-35 -34 -33 -78 4 -116 26 -25 37 -29 85 -29 l56 0 0
-100 c0 -94 2 -103 25 -125 16 -17 35 -25 60 -25 25 0 44 8 60 25 23 22 25 31
25 125 l0 100 56 0 c48 0 59 4 85 29 37 38 39 82 4 116 -24 25 -25 25 -230 25
-205 0 -206 0 -230 -25z"/>
<path d="M1988 1930 c-25 -26 -29 -36 -24 -63 10 -51 47 -77 112 -77 l54 0 0
-94 c0 -87 2 -97 26 -125 33 -40 83 -43 119 -6 23 22 25 31 25 125 l0 100 50
0 c55 0 104 20 114 45 13 35 6 76 -19 100 -24 25 -25 25 -225 25 l-202 0 -30
-30z"/>
<path d="M2676 1939 c-26 -21 -35 -65 -20 -104 10 -25 59 -45 114 -45 l50 0 0
-100 c0 -94 2 -103 25 -125 36 -37 86 -34 119 6 24 28 26 38 26 125 l0 94 54
0 c65 0 102 26 112 77 5 27 1 37 -24 63 l-30 30 -200 0 c-186 0 -201 -1 -226
-21z"/>
<path d="M3355 1935 c-35 -34 -33 -78 4 -116 26 -25 37 -29 85 -29 l56 0 0
-100 c0 -94 2 -103 25 -125 16 -17 35 -25 60 -25 25 0 44 8 60 25 23 22 25 31
25 125 l0 100 56 0 c48 0 59 4 85 29 37 38 39 82 4 116 -24 25 -25 25 -230 25
-205 0 -206 0 -230 -25z"/>
<path d="M1003 1363 c-30 -6 -63 -49 -63 -84 0 -15 10 -40 23 -54 18 -22 34
-27 85 -32 l62 -6 0 -91 c0 -53 6 -101 13 -116 26 -52 121 -48 146 6 6 14 11
65 11 114 l0 90 43 0 c87 0 143 55 121 118 -18 52 -59 62 -249 61 -93 -1 -180
-4 -192 -6z"/>
<path d="M1670 1353 c-97 -50 -44 -163 78 -163 l42 0 0 -96 c0 -92 1 -97 29
-125 38 -37 82 -39 116 -4 23 22 25 31 25 123 l0 99 62 6 c51 5 67 10 85 32
30 34 29 77 -1 112 l-24 28 -189 3 c-164 2 -192 0 -223 -15z"/>
<path d="M2353 1354 c-34 -17 -58 -62 -49 -92 13 -39 54 -65 110 -70 l54 -4 4
-100 c4 -95 5 -102 31 -124 16 -13 41 -24 57 -24 16 0 41 11 57 24 26 22 27
29 31 124 l4 100 56 4 c47 4 60 10 84 37 36 40 35 62 -1 103 l-29 33 -189 3
c-156 2 -193 -1 -220 -14z"/>
<path d="M3044 1360 c-54 -21 -70 -91 -31 -135 18 -22 34 -27 85 -32 l62 -6 0
-99 c0 -92 2 -101 25 -123 34 -35 78 -33 116 4 28 28 29 33 29 125 l0 96 43 0
c87 0 143 55 121 118 -18 52 -59 62 -254 61 -96 0 -185 -4 -196 -9z"/>
<path d="M3733 1363 c-13 -2 -32 -16 -43 -30 -54 -68 3 -143 109 -143 l39 0 4
-106 c3 -92 6 -108 23 -120 31 -23 63 -27 96 -14 40 17 49 44 49 149 l0 88 62
6 c51 5 67 10 85 32 30 34 29 77 -1 112 l-24 28 -189 2 c-103 0 -198 -1 -210
-4z"/>
</g>
</svg>
